<svg width="640" height="512" viewBox="0 0 640 512" fill="none" xmlns="http://www.w3.org/2000/svg">
<g clip-path="url(#clip0_65_27)">
<path d="M416 176C416 78.8 322.9 0 208 0C93.0999 0 -9.91672e-05 78.8 -9.91672e-05 176C-9.91672e-05 215.57 15.6199 251.96 41.6699 281.4C25.2799 314.16 2.4399 338.72 2.0799 339.08C-0.0200992 341.285 -0.590099 344.555 0.638901 347.434C1.8999 350.3 4.6019 352 7.6599 352C46.0099 352 78.4199 340.88 103.4 327.96C134.2 343.1 169.8 352 208 352C322.9 352 416 273.2 416 176ZM599.6 443.7C624.8 413.9 640 376.6 640 336C640 238.8 554 160 448 160C447.685 160 447.381 160.041 447.066 160.043C447.5 165.3 448 170.6 448 176C448 274.62 368.32 357.2 261.9 378.5C282.7 455.1 357.1 512 448 512C481.69 512 513.32 503.992 540.85 490.02C565.2 502 596.1 512 632.3 512C635.359 512 638.06 510.275 639.32 507.395C640.549 504.516 639.978 501.247 637.879 499.041C637.6 498.7 615.9 475.3 599.6 443.7Z" fill="#03B0FA"/>
</g>
<defs>
<clipPath id="clip0_65_27">
<rect width="640" height="512" fill="white"/>
</clipPath>
</defs>
</svg>
