<svg width="60" height="46" viewBox="0 0 60 46" fill="none" xmlns="http://www.w3.org/2000/svg">
<g clip-path="url(#clip0_107_28)">
<path d="M30 34.25C28.0629 34.25 26.1258 33.6146 24.4734 32.327L0 13.2969V39.875C0 42.9805 2.51836 45.5 5.625 45.5H54.375C57.4816 45.5 60 42.9816 60 39.875V13.2969L35.5313 32.3398C33.8789 33.6172 31.9336 34.25 30 34.25ZM1.90898 10.0273L26.7762 29.375C28.6734 30.8516 31.3312 30.8516 33.2285 29.375L58.0957 10.0273C59.1914 9.08984 60 7.64844 60 6.125C60 3.01836 57.4805 0.5 54.375 0.5H5.625C2.51836 0.5 0 3.01836 0 6.125C0 7.64844 0.704297 9.08984 1.90898 10.0273Z" fill="#03B0FA"/>
</g>
<defs>
<clipPath id="clip0_107_28">
<rect width="60" height="46" fill="white"/>
</clipPath>
</defs>
</svg>
