<svg width="75" height="75" viewBox="0 0 75 75" fill="none" xmlns="http://www.w3.org/2000/svg">
<g clip-path="url(#clip0_65_29)">
<path d="M74.8828 56.6895L71.4771 71.4551C70.9986 73.5425 69.1641 75.0029 67.0151 75.0029C30.0586 75 0 44.9414 0 7.98341C0 5.83595 1.4603 3.99903 3.54785 3.52296L18.3135 0.117195C20.4639 -0.381145 22.6611 0.735066 23.5547 2.77149L30.3691 18.665C31.1657 20.5371 30.6284 22.7183 29.0537 24.0044L21.167 30.3369C26.1445 40.4766 34.3887 48.7207 44.5312 53.7012L50.9883 45.8203C52.2609 44.2412 54.4585 43.6948 56.3306 44.5056L72.2241 51.3186C74.1357 52.3242 75.3809 54.5508 74.8828 56.6895Z" fill="#03B0FA"/>
</g>
<defs>
<clipPath id="clip0_65_29">
<rect width="75" height="75" fill="white"/>
</clipPath>
</defs>
</svg>
