<svg width="159" height="83" viewBox="0 0 159 83" fill="none" xmlns="http://www.w3.org/2000/svg">
<path d="M22.448 36.352V39.808H15.312V36.352H22.448ZM20.048 39.808L20.432 37.152C22.2027 37.152 23.6747 37.3653 24.848 37.792C26.0213 38.2187 26.896 38.816 27.472 39.584C28.0693 40.352 28.368 41.28 28.368 42.368C28.368 44.4373 27.6 45.9733 26.064 46.976C24.528 47.9787 22.3413 48.48 19.504 48.48C18.992 48.48 18.4053 48.4587 17.744 48.416C17.104 48.3733 16.4427 48.2987 15.76 48.192C15.0987 48.0853 14.4907 47.936 13.936 47.744C12.8267 47.3387 12.272 46.624 12.272 45.6V30.304C12.272 29.8987 12.3893 29.5787 12.624 29.344C12.8587 29.1093 13.168 28.928 13.552 28.8C14.2773 28.544 15.152 28.3627 16.176 28.256C17.2213 28.1493 18.288 28.096 19.376 28.096C22.0213 28.096 24.0587 28.5547 25.488 29.472C26.9387 30.3893 27.664 31.776 27.664 33.632C27.664 34.656 27.3653 35.5307 26.768 36.256C26.1707 36.9813 25.296 37.536 24.144 37.92C23.0133 38.304 21.6373 38.496 20.016 38.496L19.792 36.352C20.816 36.352 21.5733 36.1493 22.064 35.744C22.5547 35.3387 22.8 34.7627 22.8 34.016C22.8 33.312 22.512 32.768 21.936 32.384C21.3813 32 20.5387 31.808 19.408 31.808C19.0027 31.808 18.576 31.8293 18.128 31.872C17.68 31.8933 17.3067 31.936 17.008 32V44.448C17.3707 44.5333 17.808 44.5973 18.32 44.64C18.8533 44.6827 19.3547 44.704 19.824 44.704C20.8907 44.704 21.744 44.5013 22.384 44.096C23.0453 43.6693 23.376 43.0293 23.376 42.176C23.376 41.3653 23.0987 40.768 22.544 40.384C21.9893 40 21.1573 39.808 20.048 39.808ZM51.5785 40.32C51.5785 41.984 51.2372 43.4347 50.5545 44.672C49.8932 45.888 48.9545 46.8267 47.7385 47.488C46.5225 48.1493 45.0932 48.48 43.4505 48.48C41.8292 48.48 40.3998 48.16 39.1625 47.52C37.9465 46.8587 36.9972 45.92 36.3145 44.704C35.6532 43.4667 35.3225 42.0053 35.3225 40.32C35.3225 38.6347 35.6638 37.1947 36.3465 36C37.0292 34.784 37.9785 33.8453 39.1945 33.184C40.4318 32.5013 41.8505 32.16 43.4505 32.16C45.0718 32.16 46.4905 32.5013 47.7065 33.184C48.9225 33.8453 49.8718 34.7947 50.5545 36.032C51.2372 37.248 51.5785 38.6773 51.5785 40.32ZM43.4505 35.904C42.4478 35.904 41.6478 36.288 41.0505 37.056C40.4745 37.824 40.1865 38.912 40.1865 40.32C40.1865 41.7493 40.4745 42.848 41.0505 43.616C41.6265 44.3627 42.4265 44.736 43.4505 44.736C44.4745 44.736 45.2745 44.352 45.8505 43.584C46.4265 42.816 46.7145 41.728 46.7145 40.32C46.7145 38.9333 46.4265 37.856 45.8505 37.088C45.2745 36.2987 44.4745 35.904 43.4505 35.904ZM59.3585 39.552L64.1265 39.648V47.968C63.9132 48.032 63.6145 48.0853 63.2305 48.128C62.8465 48.192 62.4305 48.224 61.9825 48.224C61.0865 48.224 60.4252 48.064 59.9985 47.744C59.5718 47.424 59.3585 46.848 59.3585 46.016V39.552ZM64.1265 42.112L59.3585 42.016V27.168C59.5718 27.104 59.8705 27.04 60.2545 26.976C60.6385 26.912 61.0545 26.88 61.5025 26.88C62.4198 26.88 63.0812 27.04 63.4865 27.36C63.9132 27.68 64.1265 28.2667 64.1265 29.12V42.112ZM72.683 39.552H77.387V42.976C77.387 43.5733 77.579 44.0107 77.963 44.288C78.347 44.5653 78.891 44.704 79.595 44.704C79.915 44.704 80.2563 44.672 80.619 44.608C81.003 44.5227 81.323 44.4267 81.579 44.32C81.7497 44.512 81.899 44.7467 82.027 45.024C82.1763 45.3013 82.251 45.6213 82.251 45.984C82.251 46.7093 81.9523 47.3067 81.355 47.776C80.7577 48.2453 79.755 48.48 78.347 48.48C76.555 48.48 75.1577 48.0747 74.155 47.264C73.1737 46.4533 72.683 45.1307 72.683 43.296V39.552ZM75.691 36.64V32.992H81.835C81.9417 33.1627 82.0483 33.408 82.155 33.728C82.2617 34.048 82.315 34.4 82.315 34.784C82.315 35.424 82.1657 35.8933 81.867 36.192C81.5897 36.4907 81.2057 36.64 80.715 36.64H75.691ZM77.387 40.352H72.683V28.864C72.8963 28.8 73.195 28.736 73.579 28.672C73.963 28.5867 74.3683 28.544 74.795 28.544C75.7123 28.544 76.3737 28.704 76.779 29.024C77.1843 29.344 77.387 29.9307 77.387 30.784V40.352ZM105.123 40.32C105.123 41.984 104.782 43.4347 104.099 44.672C103.438 45.888 102.499 46.8267 101.283 47.488C100.067 48.1493 98.6382 48.48 96.9955 48.48C95.3742 48.48 93.9448 48.16 92.7075 47.52C91.4915 46.8587 90.5422 45.92 89.8595 44.704C89.1982 43.4667 88.8675 42.0053 88.8675 40.32C88.8675 38.6347 89.2088 37.1947 89.8915 36C90.5742 34.784 91.5235 33.8453 92.7395 33.184C93.9768 32.5013 95.3955 32.16 96.9955 32.16C98.6168 32.16 100.035 32.5013 101.251 33.184C102.467 33.8453 103.417 34.7947 104.099 36.032C104.782 37.248 105.123 38.6773 105.123 40.32ZM96.9955 35.904C95.9928 35.904 95.1928 36.288 94.5955 37.056C94.0195 37.824 93.7315 38.912 93.7315 40.32C93.7315 41.7493 94.0195 42.848 94.5955 43.616C95.1715 44.3627 95.9715 44.736 96.9955 44.736C98.0195 44.736 98.8195 44.352 99.3955 43.584C99.9715 42.816 100.259 41.728 100.259 40.32C100.259 38.9333 99.9715 37.856 99.3955 37.088C98.8195 36.2987 98.0195 35.904 96.9955 35.904ZM127.431 38.048V41.056H122.663V38.208C122.663 37.4187 122.429 36.8427 121.959 36.48C121.511 36.096 120.914 35.904 120.167 35.904C119.634 35.904 119.143 35.9787 118.695 36.128C118.247 36.256 117.842 36.416 117.479 36.608V41.056H112.743V36.064C112.743 35.5307 112.85 35.0933 113.063 34.752C113.298 34.3893 113.629 34.0693 114.055 33.792C114.738 33.3227 115.613 32.9387 116.679 32.64C117.746 32.32 118.919 32.16 120.199 32.16C122.503 32.16 124.285 32.672 125.543 33.696C126.802 34.6987 127.431 36.1493 127.431 38.048ZM112.743 39.584H117.479V47.968C117.266 48.032 116.967 48.0853 116.583 48.128C116.199 48.192 115.783 48.224 115.335 48.224C114.439 48.224 113.778 48.064 113.351 47.744C112.946 47.424 112.743 46.848 112.743 46.016V39.584ZM122.663 39.584H127.431V47.968C127.218 48.032 126.919 48.0853 126.535 48.128C126.151 48.192 125.735 48.224 125.287 48.224C124.391 48.224 123.73 48.064 123.303 47.744C122.877 47.424 122.663 46.848 122.663 46.016V39.584ZM137.815 35.168C137.602 35.488 137.357 35.7333 137.079 35.904C136.802 36.0747 136.439 36.16 135.991 36.16C135.629 36.16 135.298 36.128 134.999 36.064C134.701 35.9787 134.413 35.8613 134.135 35.712C134.221 34.944 134.306 34.1227 134.391 33.248C134.477 32.3733 134.551 31.5093 134.615 30.656C134.679 29.8027 134.733 29.024 134.775 28.32C135.031 28.1707 135.362 28.0427 135.767 27.936C136.194 27.808 136.599 27.744 136.983 27.744C137.602 27.744 138.146 27.8827 138.615 28.16C139.106 28.416 139.351 28.896 139.351 29.6C139.351 30.112 139.277 30.7307 139.127 31.456C138.999 32.1813 138.818 32.8747 138.583 33.536C138.349 34.1973 138.093 34.7413 137.815 35.168ZM157.878 43.52C157.878 45.0773 157.291 46.304 156.118 47.2C154.944 48.0747 153.238 48.512 150.998 48.512C149.248 48.512 147.808 48.256 146.678 47.744C145.547 47.232 144.982 46.4747 144.982 45.472C144.982 45.024 145.078 44.64 145.27 44.32C145.462 43.9787 145.707 43.712 146.006 43.52C146.603 43.8613 147.296 44.1813 148.086 44.48C148.896 44.7573 149.814 44.896 150.838 44.896C152.395 44.896 153.174 44.448 153.174 43.552C153.174 43.168 153.035 42.8693 152.758 42.656C152.48 42.4213 152.022 42.2507 151.382 42.144L150.038 41.824C148.331 41.4613 147.051 40.9067 146.198 40.16C145.366 39.392 144.95 38.3467 144.95 37.024C144.95 35.5307 145.547 34.3467 146.742 33.472C147.958 32.576 149.59 32.128 151.638 32.128C152.662 32.128 153.59 32.2347 154.422 32.448C155.275 32.64 155.947 32.9493 156.438 33.376C156.928 33.7813 157.174 34.2933 157.174 34.912C157.174 35.3387 157.088 35.712 156.918 36.032C156.747 36.352 156.523 36.6187 156.246 36.832C156.011 36.6827 155.648 36.5227 155.158 36.352C154.688 36.1813 154.166 36.0427 153.59 35.936C153.035 35.8293 152.512 35.776 152.022 35.776C151.254 35.776 150.656 35.8827 150.23 36.096C149.803 36.288 149.59 36.5973 149.59 37.024C149.59 37.3013 149.707 37.5467 149.942 37.76C150.198 37.952 150.635 38.112 151.254 38.24L152.534 38.56C154.432 38.9867 155.798 39.6053 156.63 40.416C157.462 41.2053 157.878 42.24 157.878 43.52Z" fill="#03B0FA"/>
<path d="M28.0566 53.3596L29.7639 52.8148C29.9335 53.2236 30.0627 53.6801 30.1516 54.1843C30.3739 55.4449 30.3273 56.9315 30.012 58.6443C29.7124 60.3543 29.2617 61.9448 28.6599 63.4156C28.0554 64.8707 27.361 66.1385 26.5768 67.2191C25.7897 68.284 25.0732 68.8733 24.4271 68.9873C23.0405 69.2318 22.1555 68.2668 21.7721 66.0923C21.5887 65.0524 21.5784 62.8284 21.7411 59.4203C20.3689 62.3268 19.083 64.8931 17.8833 67.1192C16.6809 69.3296 15.9142 70.4639 15.5833 70.5223C15.2682 70.5779 14.9545 70.5032 14.6422 70.2983C14.3456 70.0907 14.1737 69.8529 14.1265 69.585C14.0792 69.3172 14.0793 69.041 14.1266 68.7564C14.4457 66.6043 14.5507 64.6199 14.4416 62.8033C14.3482 60.9838 14.1779 59.3729 13.9307 57.9706C13.6806 56.5525 13.5185 55.6793 13.4444 55.3512L15.288 55.0262C15.4714 55.5137 15.6576 56.2932 15.8465 57.3647C16.0327 58.4204 16.1599 59.9252 16.2282 61.879C16.3095 63.8143 16.3042 65.6267 16.2122 67.3164C17.1272 65.5953 18.9833 61.84 21.7805 56.0503C22.0975 55.3608 22.3655 54.8992 22.5842 54.6657C22.816 54.4136 23.1131 54.2556 23.4755 54.1917C23.8536 54.1251 24.0747 54.2729 24.1386 54.6353C24.1636 54.7771 24.0861 55.4894 23.9061 56.7722C23.7261 58.0549 23.6133 59.6264 23.5676 61.4866C23.5219 63.3468 23.5811 64.7417 23.745 65.6713C23.9089 66.601 24.2272 67.0241 24.6999 66.9408C25.0308 66.8824 25.3988 66.5739 25.8039 66.015C26.8116 64.6351 27.5617 62.8538 28.0542 60.6711C28.5438 58.4727 28.5984 56.2941 28.2177 54.1354C28.1566 53.7887 28.1029 53.5301 28.0566 53.3596ZM33.4638 57.1827C32.5815 57.3383 32.0778 57.0616 31.9527 56.3525C31.8833 55.9586 31.9352 55.6082 32.1086 55.3015C32.2819 54.9947 32.542 54.8108 32.8886 54.7496C33.2353 54.6885 33.5369 54.7409 33.7937 54.9069C34.0504 55.0728 34.2079 55.3212 34.2663 55.6521C34.3246 55.983 34.2842 56.3069 34.1452 56.6239C34.0061 56.9409 33.779 57.1271 33.4638 57.1827ZM34.386 64.2093L34.9296 64.5278C34.6792 65.3193 34.2847 66.0306 33.7461 66.6617C33.2205 67.2743 32.7056 67.625 32.2014 67.7139C31.319 67.8695 30.7695 67.3328 30.5527 66.1037C30.2832 64.5753 30.5621 62.4709 31.3892 59.7906C31.5783 59.2048 31.6882 58.8605 31.7188 58.7577L32.8435 59.193C32.6182 59.8501 32.3766 60.8756 32.1187 62.2696C31.8766 63.6607 31.7889 64.5454 31.8556 64.9236C31.9195 65.286 32.0441 65.5321 32.2295 65.6619C32.4148 65.7917 32.6178 65.8371 32.8384 65.7982C33.2638 65.7232 33.7797 65.1936 34.386 64.2093ZM46.1325 62.3331L46.6956 62.6237C46.4712 63.3781 46.0934 64.0459 45.5622 64.6269C45.0468 65.2052 44.5449 65.5374 44.0564 65.6236C43.5679 65.7097 43.1569 65.636 42.8232 65.4023C42.4896 65.1687 42.2853 64.8392 42.2103 64.4138C42.1352 63.9883 42.2725 63.2005 42.6221 62.0503C42.9847 60.8816 43.1215 60.0452 43.0326 59.5409C42.9937 59.3203 42.8644 59.1401 42.6448 59.0001C42.4381 58.8415 42.2087 58.7845 41.9566 58.829C41.153 58.9707 40.4499 59.7283 39.8472 61.1018C39.2418 62.4595 38.6377 64.3776 38.0349 66.8559L36.5293 66.6096C36.5063 64.729 36.6178 62.8735 36.8637 61.043C37.1226 59.1939 37.4216 57.8496 37.761 57.0099L38.7842 57.1463C38.5403 58.3428 38.3213 60.3717 38.1272 63.2328C39.6459 59.1308 41.3192 56.9186 43.147 56.5963C43.5409 56.5269 43.8876 56.6039 44.1869 56.8273C44.502 57.0479 44.6915 57.3394 44.7554 57.7018C44.8193 58.0642 44.8304 58.4035 44.7886 58.7195C44.7441 59.0198 44.5642 59.7502 44.2489 60.9105C43.9466 62.0524 43.819 62.7572 43.8663 63.0251C43.9135 63.293 44.0298 63.4918 44.2152 63.6216C44.3977 63.7356 44.5599 63.7801 44.7017 63.7551C44.8436 63.7301 44.9576 63.6856 45.0438 63.6217C45.13 63.5578 45.2199 63.4688 45.3135 63.3548C45.4229 63.238 45.5179 63.1319 45.5986 63.0365C45.6792 62.941 45.7715 62.8191 45.8753 62.6709C45.9921 62.504 46.0778 62.3914 46.1325 62.3331ZM57.9478 45.1889L59.2282 45.4018L59.0057 46.0747C57.842 49.6104 56.9202 52.998 56.2404 56.2372C55.7869 58.3643 55.6476 59.9242 55.8226 60.9169C55.8671 61.169 55.9662 61.3627 56.1201 61.4981C56.2711 61.6176 56.4806 61.6538 56.7485 61.6066C57.0321 61.5566 57.3232 61.3184 57.6217 60.8921L58.118 61.2189C57.9937 61.712 57.7142 62.1999 57.2794 62.6827C56.8419 63.1498 56.3868 63.425 55.914 63.5084C55.0001 63.6695 54.4487 63.2144 54.2598 62.1429C54.1487 61.5126 54.1511 60.513 54.2672 59.144C52.9802 62.7178 51.4464 64.6617 49.6659 64.9756C49.0514 65.084 48.5296 64.981 48.1005 64.6668C47.6714 64.3525 47.3999 63.8724 47.286 63.2263C47.1054 62.2021 47.3275 61.0663 47.9524 59.8188C48.5773 58.5714 49.4274 57.4954 50.5026 56.591C51.5751 55.6707 52.6314 55.119 53.6713 54.9356L53.8881 55.7503C52.5636 56.1626 51.3993 56.9771 50.3954 58.1939C49.4044 59.3922 49.0006 60.5114 49.184 61.5513C49.2618 61.9925 49.4424 62.3262 49.726 62.5524C50.0068 62.7628 50.3363 62.8347 50.7145 62.768C51.4866 62.6319 52.3492 61.6268 53.3022 59.7529C53.6536 59.0735 54.0194 58.1073 54.3996 56.8543C54.7955 55.5984 55.1057 54.5933 55.3301 53.8389C55.5675 53.0659 55.7933 52.3194 56.0075 51.5992C56.2346 50.8606 56.5281 49.899 56.8879 48.7145C57.2449 47.5143 57.5982 46.3391 57.9478 45.1889ZM66.3982 54.4705C66.9273 55.0758 67.2641 55.7882 67.4086 56.6075C67.6337 57.8838 67.3939 59.104 66.6893 60.268C65.982 61.4163 65.0295 62.096 63.832 62.3072C62.9181 62.4683 62.1553 62.3348 61.5437 61.9065C60.945 61.4596 60.5637 60.7714 60.3997 59.8417C60.1358 58.3448 60.4826 56.9027 61.4403 55.5153C62.3951 54.1122 63.5974 53.2828 65.047 53.0272C65.3149 52.98 65.5054 52.9545 65.6184 52.9508L65.8269 53.7183C64.5663 53.9406 63.5824 54.4877 62.8751 55.3598C62.1678 56.2319 61.9141 57.2352 62.1142 58.3697C62.2336 59.0472 62.4963 59.5695 62.9022 59.9366C63.3054 60.288 63.8221 60.4081 64.4523 60.2969C65.0984 60.183 65.5605 59.8091 65.8386 59.1752C66.1168 58.5412 66.1892 57.8461 66.0558 57.0898C65.9197 56.3177 65.6463 55.6429 65.2358 55.0654L66.3982 54.4705ZM80.5282 49.737L81.2983 50.2348L80.1844 52.2102C78.8782 54.5689 78.0024 56.8354 77.5572 59.0097C77.4274 59.4713 77.2522 59.7215 77.0316 59.7604C76.8268 59.7965 76.6493 59.8035 76.4991 59.7812C76.362 59.7404 76.1761 59.5619 75.9417 59.2459C75.723 58.927 75.5391 58.5289 75.3899 58.0515C75.2408 57.5742 75.112 57.1663 75.0036 56.828C74.8952 56.4897 74.8192 56.2431 74.7757 56.0884C74.7294 55.9178 74.6752 55.7487 74.6131 55.5809C74.564 55.3946 74.5232 55.2555 74.4908 55.1638C74.4584 55.072 74.426 54.9803 74.3935 54.8885C74.3611 54.7967 74.3222 54.7142 74.2768 54.641C74.2286 54.552 74.1911 54.4774 74.1642 54.4172C74.1345 54.3411 74.0729 54.222 73.9793 54.0598C73.9015 53.8948 73.8357 53.7521 73.782 53.6316C73.1182 54.6585 72.6004 55.822 72.2285 57.1224C72.0885 57.6182 71.8163 58.6085 71.412 60.0933C71.323 60.4177 71.1524 60.6021 70.9003 60.6466C70.664 60.6882 70.4628 60.6993 70.2969 60.6798C70.144 60.6418 69.961 60.4791 69.7479 60.1918C69.5347 59.9044 69.3332 59.4525 69.1433 58.8362C68.2066 55.7357 67.4636 53.6409 66.9141 52.5518C67.3489 52.3451 67.7947 52.2015 68.2516 52.121C68.3554 52.2489 68.5343 52.6641 68.7881 53.3667C69.3033 54.7219 69.9324 56.3087 70.6755 58.1273C71.1864 56.51 71.7969 54.997 72.5071 53.5883C73.2302 52.1611 73.7415 51.421 74.0409 51.3682C74.3875 51.3071 74.667 51.5097 74.8791 51.9759C75.1043 52.4236 75.3642 53.2064 75.6588 54.3242C75.9663 55.4235 76.2734 56.336 76.5801 57.0618C77.614 54.2638 78.93 51.8222 80.5282 49.737Z" fill="#03B0FA"/>
<path d="M84.8304 55.7251C85.4134 55.6223 85.8917 55.7086 86.2651 55.9839C86.6516 56.2407 86.8935 56.6448 86.9907 57.1963C87.2074 58.4254 86.6762 59.6969 85.3969 61.011C84.1149 62.3094 82.5363 63.1239 80.6613 63.4545C79.8419 63.599 78.9544 63.6336 77.9989 63.5584C77.5724 64.6409 77.4605 65.7573 77.6633 66.9075C77.8634 68.042 78.3411 68.9083 79.0964 69.5062C79.8489 70.0884 80.8318 70.2725 82.0451 70.0585C84.2195 69.6751 85.4219 68.1552 85.6521 65.4989L86.763 65.303C86.848 66.799 86.3825 68.2133 85.3665 69.546C84.3663 70.8759 82.8813 71.7145 80.9117 72.0618C79.8718 72.2451 78.836 72.0379 77.8045 71.4399C76.7702 70.8262 76.1253 69.7945 75.8697 68.3448C75.6141 66.8952 75.8863 65.2144 76.6865 63.3024C75.7995 62.9714 75.0586 62.5009 74.4636 61.891L74.9767 61.0694C75.1065 61.1602 75.2853 61.2993 75.5133 61.4865C75.9507 61.8481 76.5045 62.1322 77.1746 62.339C77.8764 60.883 79.0167 59.4716 80.5953 58.1047C82.1897 56.735 83.6014 55.9418 84.8304 55.7251ZM80.4237 62.5216C81.7945 62.2799 82.943 61.7443 83.869 60.9149C84.795 60.0855 85.1817 59.2375 85.0289 58.3708C84.9761 58.0715 84.8241 57.8546 84.5729 57.7201C84.3347 57.5672 84.0502 57.5199 83.7193 57.5782C82.7581 57.7477 81.7547 58.3227 80.7091 59.3031C79.6607 60.2678 78.8843 61.347 78.3799 62.5408C78.9861 62.6613 79.6673 62.655 80.4237 62.5216ZM93.5497 67.2501L94.1169 67.5644C93.7284 68.494 93.3706 69.1826 93.0433 69.6302C92.7291 70.0593 92.3356 70.3155 91.8629 70.3989C91.3902 70.4822 90.9708 70.3612 90.6047 70.0358C90.2387 69.7104 90.0056 69.2641 89.9056 68.6969C89.7111 67.5939 90.0178 65.0947 90.8256 61.1992C91.6307 57.288 92.5529 53.811 93.5923 50.7683L94.7323 51.1522C93.716 54.4183 92.8467 57.6422 92.1242 60.824C91.399 63.9901 91.1502 66.2191 91.3781 67.5112C91.5087 68.2518 91.8497 68.5734 92.4012 68.4762C92.8424 68.3984 93.2252 67.9897 93.5497 67.2501ZM102.805 65.0819L103.424 65.4115C103.055 66.1752 102.485 66.8605 101.715 67.4675C100.942 68.0587 100.154 68.4252 99.3501 68.5669C98.5465 68.7086 97.8588 68.5861 97.287 68.1996C96.7152 67.813 96.3612 67.2336 96.2251 66.4616C95.9695 65.0119 96.4822 63.4512 97.7634 61.7793C99.0603 60.1047 100.497 59.1284 102.072 58.8506C103.112 58.6672 103.704 58.9852 103.849 59.8046C103.999 60.6554 103.599 61.6114 102.649 62.6725C101.714 63.7309 100.317 64.7896 98.4566 65.8488C98.6623 66.1862 98.9329 66.4309 99.2684 66.5829C99.6039 66.735 99.9292 66.7832 100.244 66.7277C100.922 66.6082 101.776 66.0596 102.805 65.0819ZM98.2134 65.1605C99.4119 64.4943 100.41 63.7497 101.207 62.9268C102.004 62.1038 102.354 61.4166 102.257 60.8651C102.221 60.6603 102.11 60.493 101.925 60.3632C101.739 60.2334 101.544 60.1866 101.339 60.2227C100.599 60.3533 99.8772 60.9598 99.1745 62.0423C98.4847 63.1062 98.1644 64.1456 98.2134 65.1605ZM114.546 63.4261L115.16 63.732C115.023 64.2436 114.692 64.765 114.169 65.296C113.661 65.8242 113.162 66.1314 112.674 66.2175C111.744 66.3814 111.193 65.9749 111.021 64.998C110.941 64.5411 110.963 63.9766 111.088 63.3047L110.372 64.357C109.674 65.3737 109.036 66.0873 108.459 66.4978C107.897 66.9055 107.317 67.1622 106.718 67.2677C106.119 67.3733 105.633 67.2884 105.26 67.0131C104.899 66.7193 104.666 66.2729 104.56 65.6742C104.366 64.5712 104.6 63.409 105.262 62.1874C105.921 60.9502 106.852 59.8761 108.057 58.9652C109.261 58.0542 110.523 57.4742 111.844 57.2251L112.029 57.9967L111.074 58.3844C109.695 58.9524 108.538 59.8064 107.602 60.9463C106.681 62.0834 106.304 63.1246 106.471 64.0701C106.635 64.9997 107.095 65.3979 107.851 65.2645C108.56 65.1395 109.347 64.4889 110.212 63.3129C111.077 62.1368 111.738 60.818 112.195 59.3564L113.292 59.7723C112.663 61.9141 112.395 63.2529 112.489 63.7887C112.528 64.0093 112.633 64.1858 112.802 64.3184C112.985 64.4324 113.147 64.477 113.289 64.4519C113.446 64.4242 113.547 64.3982 113.592 64.3741C113.636 64.35 113.681 64.3259 113.725 64.3019C113.767 64.262 113.815 64.2129 113.87 64.1545C113.94 64.0933 113.995 64.035 114.034 63.9794C114.089 63.921 114.171 63.8334 114.28 63.7166C114.39 63.5999 114.478 63.503 114.546 63.4261ZM125.305 61.0415L125.868 61.3322C125.644 62.0866 125.266 62.7543 124.735 63.3354C124.219 63.9137 123.717 64.2459 123.229 64.332C122.741 64.4182 122.329 64.3444 121.996 64.1108C121.662 63.8772 121.458 63.5477 121.383 63.1222C121.308 62.6968 121.445 61.909 121.795 60.7588C122.157 59.5901 122.294 58.7536 122.205 58.2494C122.166 58.0288 122.037 57.8485 121.817 57.7085C121.611 57.55 121.381 57.493 121.129 57.5374C120.326 57.6791 119.622 58.4367 119.02 59.8102C118.414 61.168 117.81 63.086 117.207 65.5644L115.702 65.3181C115.679 63.4375 115.79 61.5819 116.036 59.7514C116.295 57.9024 116.594 56.558 116.934 55.7184L117.957 55.8547C117.713 57.0513 117.494 59.0801 117.3 61.9413C118.819 57.8393 120.492 55.6271 122.32 55.3048C122.714 55.2353 123.06 55.3123 123.359 55.5357C123.675 55.7564 123.864 56.0479 123.928 56.4103C123.992 56.7727 124.003 57.1119 123.961 57.428C123.917 57.7283 123.737 58.4586 123.421 59.619C123.119 60.7608 122.992 61.4657 123.039 61.7336C123.086 62.0014 123.202 62.2003 123.388 62.33C123.57 62.4441 123.733 62.4886 123.874 62.4636C124.016 62.4386 124.13 62.3941 124.216 62.3302C124.303 62.2662 124.392 62.1773 124.486 62.0633C124.595 61.9465 124.691 61.8404 124.771 61.7449C124.852 61.6495 124.944 61.5276 125.048 61.3793C125.165 61.2125 125.25 61.0999 125.305 61.0415ZM129.924 52.8428C129.042 52.9984 128.538 52.7217 128.413 52.0126C128.344 51.6187 128.396 51.2684 128.569 50.9616C128.743 50.6548 129.003 50.4709 129.349 50.4098C129.696 50.3486 129.998 50.401 130.254 50.567C130.511 50.7329 130.668 50.9813 130.727 51.3122C130.785 51.6431 130.745 51.9671 130.606 52.284C130.467 52.601 130.24 52.7873 129.924 52.8428ZM130.847 59.8694L131.39 60.1879C131.14 60.9794 130.745 61.6907 130.207 62.3218C129.681 62.9344 129.166 63.2851 128.662 63.374C127.78 63.5296 127.23 62.9929 127.013 61.7639C126.744 60.2354 127.023 58.1311 127.85 55.4507C128.039 54.865 128.149 54.5207 128.179 54.4178L129.304 54.8531C129.079 55.5102 128.837 56.5357 128.579 57.9297C128.337 59.3209 128.249 60.2055 128.316 60.5837C128.38 60.9461 128.505 61.1922 128.69 61.322C128.875 61.4518 129.078 61.4972 129.299 61.4583C129.724 61.3833 130.24 60.8537 130.847 59.8694ZM142.593 57.9932L143.156 58.2838C142.932 59.0383 142.554 59.706 142.023 60.2871C141.507 60.8654 141.005 61.1976 140.517 61.2837C140.028 61.3698 139.617 61.2961 139.284 61.0625C138.95 60.8288 138.746 60.4993 138.671 60.0739C138.596 59.6484 138.733 58.8606 139.083 57.7105C139.445 56.5417 139.582 55.7053 139.493 55.2011C139.454 54.9805 139.325 54.8002 139.105 54.6602C138.899 54.5017 138.669 54.4446 138.417 54.4891C137.614 54.6308 136.91 55.3884 136.308 56.7619C135.702 58.1197 135.098 60.0377 134.495 62.516L132.99 62.2697C132.967 60.3891 133.078 58.5336 133.324 56.7031C133.583 54.8541 133.882 53.5097 134.222 52.67L135.245 52.8064C135.001 54.0029 134.782 56.0318 134.588 58.893C136.106 54.7909 137.78 52.5787 139.608 52.2565C140.002 52.187 140.348 52.264 140.647 52.4874C140.963 52.708 141.152 52.9995 141.216 53.362C141.28 53.7244 141.291 54.0636 141.249 54.3796C141.205 54.6799 141.025 55.4103 140.709 56.5707C140.407 57.7125 140.28 58.4174 140.327 58.6852C140.374 58.9531 140.49 59.1519 140.676 59.2817C140.858 59.3957 141.021 59.4402 141.162 59.4152C141.304 59.3902 141.418 59.3458 141.504 59.2818C141.591 59.2179 141.68 59.1289 141.774 59.0149C141.883 58.8982 141.978 58.792 142.059 58.6966C142.14 58.6011 142.232 58.4793 142.336 58.331C142.453 58.1642 142.538 58.0516 142.593 57.9932ZM154.195 58.019L154.318 58.5821C154.177 58.7044 153.51 59.1144 152.318 59.8122C152.344 62.9107 151.987 65.2157 151.246 66.7273C150.505 68.2389 149.426 69.1197 148.008 69.3698C147.346 69.4865 146.781 69.3668 146.312 69.0109C145.843 68.6549 145.548 68.1381 145.429 67.4606C145.19 66.1055 145.589 64.7273 146.625 63.326C147.664 61.9405 149.164 60.7256 151.125 59.6813C151.175 58.5839 151.338 57.0199 151.613 54.9892C150.841 56.7826 150.072 58.0393 149.305 58.7593C148.554 59.4766 147.832 59.8964 147.139 60.0186C146.445 60.1409 145.884 60.0449 145.455 59.7306C145.042 59.4136 144.78 58.9399 144.668 58.3096C144.485 57.2697 144.732 56.1375 145.41 54.9133C146.085 53.6732 147.016 52.5991 148.205 51.691C149.406 50.7643 150.621 50.1926 151.85 49.9759L152.185 50.7698C150.47 51.2673 149.073 52.1471 147.996 53.4093C146.935 54.6688 146.489 55.7791 146.658 56.7403C146.73 57.1499 146.916 57.4665 147.215 57.6899C147.515 57.9133 147.846 57.9931 148.208 57.9292C148.744 57.8347 149.455 57.1244 150.342 55.7982C151.23 54.472 151.823 53.3682 152.123 52.4868L153.085 52.8289C152.626 55.298 152.372 57.3574 152.322 59.0072L154.195 58.019ZM151.108 60.4154C149.848 61.2874 148.847 62.2438 148.104 63.2845C147.362 64.3253 147.055 65.2081 147.182 65.9329C147.249 66.3111 147.414 66.5989 147.676 66.7963C147.938 66.9938 148.235 67.0633 148.566 67.005C149.227 66.8883 149.799 66.3082 150.281 65.2646C150.764 64.221 151.039 62.6046 151.108 60.4154Z" fill="#03B0FA"/>
<path d="M104.427 10.9927L105.462 17.7122L111.22 19.0173L105.428 20.3224L104.22 27.0419L103.185 20.3224L97.4267 19.0173L103.218 17.7122L104.427 10.9927Z" fill="#03B0FA"/>
<path d="M101.958 16.2051L104.42 18.096L106.833 16.1575L105.225 19.0113L106.906 21.833L104.444 19.9421L102.031 21.8806L103.639 19.0268L101.958 16.2051Z" fill="#03B0FA"/>
<path d="M118.453 13.6057L113.364 13.4721C113.364 13.4721 112.633 17.779 112.142 19.2853C111.651 20.7916 111.347 21.628 110.717 23.0939C110.717 23.0939 108.582 27.9048 108.514 28.1053C108.446 28.3057 113.06 29.4416 113.128 29.0407C113.196 28.6398 114.681 25.1222 115.671 22.4926C115.462 22.2275 121.363 24.0604 121.167 24.5639C120.971 25.0674 120.937 25.0985 120.801 25.2989C120.666 25.4994 123.651 27.9048 123.651 27.9048C123.651 27.9048 125.196 29.3409 126.052 30.3771C126.809 31.2923 127.817 32.8494 127.817 32.8494C127.817 32.8494 128.631 34.0521 128.902 34.2526C129.174 34.453 129.504 34.5568 129.92 34.3862C130.336 34.2156 130.667 33.718 130.667 33.718C130.669 33.7643 131.372 32.1498 131.413 31.9807C131.454 31.8116 131.617 31.1121 131.413 30.3771C131.209 29.6421 127.598 25.6479 125.985 24.5353C124.371 23.4226 122.049 22.4639 122.185 22.5975L121.778 23.2276C119.807 22.0578 118.533 21.6121 116.485 21.0894L118.453 13.6057Z" fill="#03B0FA"/>
<path d="M13.0186 41.4721C7.12704 39.0012 4.39833 33.7239 4.39833 33.7239C-5.16287 18.8664 16.3737 6.43488 25.0131 3.97211C33.6526 1.50934 60.7033 -2.29596 103.323 18.4927" stroke="#03B0FA" stroke-width="2.5"/>
</svg>
